<svg xmlns="http://www.w3.org/2000/svg" viewBox="0 0 1200 1200">
  <g id="Background">
    <rect width="1200" height="1200" rx="600" style="fill: #ffb2b4"/>
  </g>
  <g id="Foreground">
    <path d="M1023,333.26,892.91,408.35a348.24,348.24,0,0,1,22,38.76L1045.09,372Q1034.88,352.09,1023,333.26Z" style="fill: #5f121b"/>
    <path d="M287.55,757.86,157.47,833Q167.9,852.73,180,871.41l130.16-75.14A349.35,349.35,0,0,1,287.55,757.86Z" style="fill: #5f121b"/>
    <path d="M950,600.06C950,793.33,793.28,950,600,950a348.39,348.39,0,0,1-175-46.83L281.91,985.79A497.94,497.94,0,0,0,600,1100c276.14,0,500-223.86,500-500a504.47,504.47,0,0,0-6.79-82.62Z" style="fill: #5f121b"/>
    <path d="M250.06,606.3c0-2.1-.06-4.2-.06-6.3,0-193.3,156.7-350,350-350a348.47,348.47,0,0,1,180.48,50.06L922.62,218A498,498,0,0,0,600,100c-276.14,0-500,223.86-500,500a502.44,502.44,0,0,0,7.8,88.44Z" style="fill: #5f121b"/>
  </g>
</svg>
