<svg width="1024" height="1024" viewBox="0 0 1024 1024" fill="none"
    xmlns="http://www.w3.org/2000/svg">
    <path
        d="M882.603 279.109L768.795 344.792C775.931 355.672 782.366 366.997 788.059 378.698L901.948 312.942C895.998 301.363 889.55 290.085 882.603 279.109ZM239.099 650.633L125.313 716.338C131.379 727.874 137.942 739.088 145 749.982L258.896 684.233C251.593 673.463 244.98 662.241 239.099 650.633ZM818.75 512.558C818.75 681.666 681.616 818.75 512.5 818.75C458.739 818.831 405.912 804.696 359.375 777.778L234.17 850.06C312.458 914.803 410.909 950.153 512.5 950C754.124 950 950 754.124 950 512.5C950.009 488.281 948.021 464.103 944.057 440.21L818.75 512.558ZM206.301 518.012C206.301 516.175 206.25 514.367 206.25 512.5C206.25 343.334 343.333 206.25 512.5 206.25C568.151 206.163 622.764 221.313 670.416 250.059L794.79 178.25C715.918 111.441 615.864 74.8456 512.5 75.0005C270.876 75.0005 75 270.876 75 512.5C74.9891 538.444 77.273 564.338 81.825 589.879L206.301 518.012Z"
        fill="#FFB3B3" />
</svg>
    